<svg width="99" height="118" viewBox="0 0 99 118" fill="none" xmlns="http://www.w3.org/2000/svg">
<path d="M83.0738 44.7846L98.44 35.8298L95.7546 31.1277C90.8386 22.2404 85.586 15.4408 79.6954 10.341C70.4757 2.3564 60.0511 -1.03347 48.7071 0.272778C40.7691 1.18337 24.7217 10.3689 15.8623 15.7648L15.8131 15.7927C13.7656 16.741 11.7397 18.0195 9.79064 19.5901C4.80377 23.6103 1.953 28.6265 1.323 34.5017C-0.0118182 46.9498 8.95785 60.736 16.9235 71.357L17.2759 71.8262L6.38272 78.2978L6.36106 78.262L0 82.0396L0.344533 82.6361C4.80377 90.392 18.3744 113.982 35.8688 117.3C37.2726 117.567 38.6842 117.7 40.0662 117.7C42.8304 117.7 45.5847 117.155 48.2563 116.082L48.65 115.921C49.7545 115.453 50.8629 114.889 51.9457 114.237L51.9772 114.219L77.3093 101.26C85.1233 96.9909 90.7244 89.8711 93.0771 81.2125C95.4258 72.5539 94.2052 63.5453 89.6337 55.843L83.0738 44.7846ZM33.4394 14.3075C41.1333 10.2516 46.5494 8.02079 49.5399 7.67684C50.5656 7.55953 52.0166 7.39252 53.7944 7.39252C56.6964 7.39252 60.4764 7.8339 64.7506 9.63919C73.1867 13.202 81.0263 20.9481 88.0489 32.6606L88.3245 33.1199L64.0359 47.2719L63.7741 46.8265C53.7787 29.6902 43.5903 19.0712 33.4945 15.2618L32.4058 14.8523L33.4394 14.3075ZM8.66057 35.3009C8.86335 33.3883 9.42642 31.6347 10.3576 30.0103C11.2869 28.3899 12.5843 26.9028 14.2676 25.5249L14.3168 25.4891C15.8347 24.5129 17.4787 23.485 19.2013 22.4333L19.2663 22.3995C22.1387 21.1549 24.9954 20.8288 28.0017 21.3994C31.6596 22.0933 35.4987 24.1292 39.4106 27.4515L39.9402 27.9008L29.3404 35.0146L29.3267 34.9908L23.1881 39.1242C25.4364 42.4624 28.5706 46.403 32.1794 50.9381L32.201 50.964C38.2963 58.6206 45.882 68.148 50.8944 77.2739L51.1326 77.7093L37.9026 86.0677L37.6171 85.686C35.7665 83.2305 33.5851 80.5166 31.2797 77.6437C21.1642 65.0564 7.31788 47.8127 8.66057 35.3009ZM56.344 96.3288C55.9246 100.158 54.1232 103.307 50.8334 105.958C50.0341 106.6 49.221 107.18 48.4099 107.681L48.3744 107.703L45.6103 109.117C43.7577 109.866 41.9169 110.242 40.0367 110.242C39.1114 110.242 38.1782 110.153 37.2312 109.972C33.0811 109.187 28.7597 106.705 24.2925 102.554C19.8254 98.4045 15.2126 92.587 10.4915 85.1293L10.2021 84.67L21.867 77.7431L22.1466 78.095C23.2058 79.4291 33.5359 93.766 35.4397 96.4123L54.3063 84.495L54.5288 85.0955C56.086 89.3283 56.6964 93.1079 56.344 96.3288ZM85.9581 79.2382C84.1488 85.8967 79.847 91.3782 73.8403 94.6766L63.1697 100.134L63.3783 99.0765C63.5122 98.4085 63.6107 97.7762 63.6796 97.1479C65.4633 80.8586 50.2093 61.6943 37.9498 46.2977C36.6563 44.6733 35.3176 42.9933 34.1068 41.4425L33.7583 40.9971L45.252 33.2809L45.5512 33.6288C49.7447 38.49 54.1035 44.8304 58.5017 52.481L58.8659 53.1132L58.9132 53.0834L61.3899 57.4177L76.6812 48.5086L83.3022 59.6663C86.8282 65.6111 87.7713 72.5598 85.9581 79.2382Z" fill="black"/>
</svg>
