<svg width="1322" height="1562" viewBox="0 0 1322 1562" fill="none" xmlns="http://www.w3.org/2000/svg">
<path d="M1115.64 594.338L1322 475.498L1285.94 413.096C1219.92 295.153 1149.38 204.915 1070.27 137.236C946.454 31.2719 806.457 -13.7152 654.112 3.62004C547.508 15.7046 332 137.605 213.023 209.216L212.362 209.585C184.865 222.171 157.658 239.137 131.483 259.981C64.5122 313.333 26.2279 379.903 17.7672 457.873C-0.158714 623.072 120.3 806.029 227.274 946.98L232.006 953.207L85.7167 1039.09L85.4259 1038.62L0 1088.75L4.62691 1096.67C64.5122 1199.6 246.76 1512.66 481.701 1556.7C500.552 1560.23 519.509 1562 538.07 1562C575.191 1562 612.179 1554.77 648.058 1540.52L653.346 1538.38C668.178 1532.18 683.064 1524.69 697.605 1516.04L698.028 1515.8L1038.23 1343.82C1143.16 1287.17 1218.38 1192.68 1249.98 1077.77C1281.52 962.865 1265.13 843.312 1203.74 741.094L1115.64 594.338ZM449.074 189.875C552.4 136.049 625.135 106.444 665.296 101.879C679.071 100.323 698.557 98.1064 722.432 98.1064C761.404 98.1064 812.168 103.964 869.568 127.922C982.861 175.205 1088.14 278.003 1182.45 433.44L1186.15 439.535L859.97 627.347L856.454 621.436C722.221 394.02 585.396 253.095 449.815 202.54L435.194 197.105L449.074 189.875ZM116.307 468.48C119.03 443.097 126.592 419.825 139.098 398.268C151.577 376.764 169.001 357.027 191.607 338.742L192.268 338.267C212.653 325.312 234.73 311.671 257.864 297.713L258.737 297.264C297.312 280.747 335.675 276.42 376.048 283.992C425.173 293.201 476.73 320.219 529.265 364.31L536.377 370.273L394.027 464.68L393.842 464.363L311.404 519.219C341.598 563.52 383.69 615.816 432.153 676.001L432.444 676.344C514.3 777.955 616.172 904.394 683.487 1025.5L686.686 1031.28L509.013 1142.21L505.179 1137.14C480.326 1104.55 451.031 1068.54 420.07 1030.41C284.224 863.365 98.2754 634.523 116.307 468.48ZM756.671 1278.38C751.04 1329.2 726.847 1371 682.667 1406.17C671.933 1414.69 661.013 1422.39 650.12 1429.04L649.644 1429.33L612.523 1448.09C587.644 1458.04 562.923 1463.03 537.673 1463.03C525.246 1463.03 512.714 1461.84 499.997 1459.44C444.262 1449.02 386.228 1416.09 326.237 1361C266.245 1305.93 204.297 1228.72 140.896 1129.75L137.009 1123.66L293.663 1031.73L297.418 1036.4C311.642 1054.11 450.37 1244.37 475.937 1279.49L729.306 1121.34L732.294 1129.3C753.208 1185.48 761.404 1235.64 756.671 1278.38ZM1154.37 1051.57C1130.08 1139.94 1072.31 1212.68 991.639 1256.46L848.337 1328.88L851.139 1314.85C852.937 1305.98 854.259 1297.59 855.185 1289.25C879.139 1073.08 674.286 818.747 509.647 614.418C492.276 592.861 474.298 570.565 458.037 549.984L453.358 544.074L607.711 441.672L611.73 446.289C668.046 510.802 726.583 594.945 785.649 696.477L790.54 704.867L791.175 704.471L824.436 761.992L1029.79 643.758L1118.71 791.834C1166.06 870.726 1178.72 962.944 1154.37 1051.57Z" fill="white"/>
</svg>
