<svg width="1100" height="1299" viewBox="0 0 1100 1299" fill="none" xmlns="http://www.w3.org/2000/svg">
<path d="M928.293 494.267L1100 395.437L1069.99 343.542C1015.06 245.457 956.365 170.413 890.542 114.129C787.518 26.0065 671.031 -11.4059 544.269 3.01052C455.567 13.0604 276.248 114.436 177.25 173.989L176.7 174.296C153.821 184.763 131.183 198.872 109.404 216.207C53.6789 260.576 21.8235 315.938 14.7836 380.779C-0.132061 518.163 100.098 670.315 189.108 787.534L193.046 792.712L71.3225 864.136L71.0805 863.741L0 905.433L3.84993 912.016C53.6789 997.615 205.322 1257.97 400.81 1294.59C416.496 1297.53 432.269 1299 447.713 1299C478.6 1299 509.378 1292.99 539.231 1281.14L543.631 1279.36C555.973 1274.2 568.359 1267.97 580.458 1260.78L580.81 1260.58L863.879 1117.55C951.195 1070.44 1013.78 991.866 1040.07 896.304C1066.32 800.743 1052.68 701.32 1001.6 616.314L928.293 494.267ZM373.663 157.905C459.637 113.142 520.158 88.5218 553.575 84.7257C565.037 83.431 581.25 81.5878 601.116 81.5878C633.543 81.5878 675.783 86.4591 723.544 106.383C817.812 145.705 905.414 231.194 983.886 360.46L986.966 365.529L715.558 521.718L712.632 516.803C600.94 327.677 487.092 210.48 374.278 168.438L362.113 163.917L373.663 157.905ZM96.776 389.6C99.042 368.491 105.334 349.137 115.74 331.21C126.123 313.326 140.621 296.913 159.431 281.707L159.981 281.312C176.942 270.538 195.312 259.193 214.562 247.586L215.288 247.213C247.385 233.476 279.306 229.878 312.9 236.175C353.775 243.833 396.674 266.303 440.387 302.969L446.305 307.928L327.859 386.44L327.705 386.177L259.111 431.796C284.234 468.638 319.258 512.129 359.583 562.18L359.825 562.466C427.935 646.968 512.7 752.118 568.711 852.836L571.373 857.641L423.536 949.889L420.346 945.676C399.666 918.576 375.29 888.624 349.529 856.917C236.495 717.997 81.7723 527.686 96.776 389.6ZM629.605 1063.14C624.919 1105.4 604.79 1140.16 568.029 1169.41C559.097 1176.49 550.011 1182.9 540.947 1188.43L540.551 1188.67L509.664 1204.27C488.962 1212.55 468.393 1216.69 447.383 1216.69C437.043 1216.69 426.615 1215.7 416.034 1213.71C369.659 1205.04 321.37 1177.66 271.453 1131.84C221.536 1086.04 169.99 1021.84 117.235 939.532L114.002 934.463L244.349 858.014L247.473 861.898C259.309 876.622 374.74 1034.85 396.014 1064.06L606.836 932.532L609.322 939.159C626.723 985.875 633.543 1027.59 629.605 1063.14ZM960.523 874.515C940.305 948.002 892.236 1008.5 825.115 1044.9L705.878 1105.13L708.21 1093.46C709.706 1086.09 710.806 1079.11 711.576 1072.18C731.507 892.399 561.055 680.891 424.063 510.966C409.61 493.039 394.65 474.497 381.12 457.381L377.226 452.466L505.66 367.306L509.004 371.146C555.863 424.796 604.57 494.772 653.717 579.208L657.787 586.186L658.315 585.857L685.99 633.692L856.861 535.366L930.845 658.51C970.247 724.119 980.784 800.809 960.523 874.515Z" fill="white"/>
</svg>
