<svg width="63" height="55" viewBox="0 0 63 55" fill="none" xmlns="http://www.w3.org/2000/svg">
<path d="M51.9887 32.2177C51.5522 31.4292 50.7997 30.856 49.9247 30.6452L49.8784 30.6339C48.2395 30.2391 46.6016 31.1444 46.0679 32.7402C45.7717 33.6251 45.4259 34.4858 45.033 35.32C43.7533 34.2734 42.5168 33.2023 41.3481 32.125C40.9758 31.7823 40.3964 31.8058 40.0538 32.1778C39.7109 32.5497 39.7346 33.1292 40.1066 33.4719C41.3917 34.6562 42.7555 35.8337 44.1685 36.979C43.3993 38.3219 42.4997 39.5822 41.4806 40.7452C39.2413 39.7106 37.0827 38.5715 35.0579 37.3521C34.6244 37.0912 34.0619 37.2308 33.8008 37.664C33.5399 38.0973 33.6796 38.6601 34.1129 38.921C36.0242 40.0721 38.0501 41.153 40.1487 42.1447C39.3975 42.8709 38.5942 43.5505 37.742 44.1787C36.3876 45.1772 36.0296 47.0143 36.9087 48.452L36.9332 48.4919C37.4033 49.2604 38.18 49.8005 39.0644 49.9736C39.269 50.0136 39.4757 50.0333 39.6816 50.0333C40.3676 50.0333 41.0443 49.8148 41.6038 49.4021C46.5865 45.7266 50.2593 40.6805 52.2254 34.8093C52.5123 33.9526 52.4261 33.0079 51.9887 32.2177ZM50.4884 34.228C48.6426 39.74 45.1942 44.4776 40.5163 47.9283C40.1963 48.1644 39.8059 48.2523 39.416 48.1763C39.0285 48.1005 38.7016 47.8733 38.4927 47.5318L38.4713 47.4969C38.0917 46.8761 38.2453 46.0836 38.8287 45.6535C43.0407 42.5483 46.1446 38.2839 47.8048 33.3214C47.996 32.7497 48.5421 32.3766 49.1273 32.3766C49.234 32.3766 49.3423 32.3891 49.4498 32.4149L49.4946 32.4257C49.8783 32.5181 50.1947 32.7594 50.386 33.1048C50.5783 33.452 50.6147 33.851 50.4884 34.228Z" fill="#6D5729"/>
<path d="M30.1966 18.8103C26.7094 13.0778 25.9951 9.19592 25.9886 9.15907C25.9174 8.74697 25.5761 8.43526 25.1592 8.40192C16.5226 7.71122 9.9314 0.382846 9.86629 0.309253C9.60805 0.0170637 9.19292 -0.0794435 8.83236 0.0687121C8.47167 0.216868 8.24422 0.577073 8.26568 0.966497C8.28508 1.31809 8.80871 9.68998 14.6537 19.6152C14.7709 19.8149 14.9598 19.9625 15.1821 20.0284L19.7171 21.3738L18.689 24.8764C18.6048 25.1629 18.6658 25.4724 18.852 25.7058C19.6067 26.651 20.4067 27.5852 21.23 28.4826C21.4107 28.6795 21.6574 28.7794 21.9051 28.7794C22.1264 28.7794 22.3481 28.6996 22.524 28.5385C22.8967 28.1966 22.9216 27.6172 22.5797 27.2444C21.8921 26.495 21.2214 25.719 20.5814 24.9327L21.7317 21.0135C21.8739 20.5291 21.5974 20.021 21.1134 19.8776L16.0504 18.3755C12.4571 12.1703 11.0138 6.55167 10.4469 3.43265C13.0655 5.75331 18.1046 9.43792 24.3374 10.1614C24.6952 11.5801 25.7786 15.072 28.6316 19.762C28.8946 20.1941 29.4578 20.3315 29.8901 20.0685C30.3223 19.8057 30.4594 19.2423 30.1966 18.8103Z" fill="#6D5729"/>
<path d="M61.0636 45.6158L61.0336 45.5939C60.5025 45.2074 59.8527 45.0509 59.2042 45.153C58.8043 45.216 58.435 45.3732 58.1196 45.6082L51.6772 40.8685C51.2701 40.5687 50.6965 40.6558 50.3968 41.0634C50.097 41.4708 50.1843 42.0441 50.5919 42.344L56.9521 47.0235L54.6839 50.1398L48.3311 45.466C47.9239 45.1663 47.3504 45.2534 47.0507 45.661C46.7509 46.0684 46.8382 46.6417 47.2458 46.9415L53.6939 51.6857C53.354 52.6793 53.6805 53.8214 54.5734 54.4714L54.6035 54.4932C55.0284 54.8025 55.5295 54.9646 56.0453 54.9646C56.174 54.9646 56.3034 54.9544 56.433 54.9341C57.0817 54.8318 57.6518 54.4832 58.0383 53.9521L61.6055 49.0514C62.403 47.955 62.1601 46.414 61.0636 45.6158ZM60.1242 47.9732L56.557 52.8739C56.4583 53.0094 56.3131 53.0982 56.1476 53.1244C55.982 53.1505 55.8164 53.1105 55.6804 53.0114L55.6504 52.9896C55.3707 52.786 55.3088 52.3931 55.5123 52.1136L59.0795 47.2127C59.1782 47.0773 59.3235 46.9884 59.489 46.9623C59.5221 46.9572 59.555 46.9545 59.5879 46.9545C59.7194 46.9545 59.8474 46.9958 59.9562 47.0751L59.9863 47.097C60.2656 47.3005 60.3276 47.6936 60.1242 47.9732Z" fill="#6D5729"/>
<path d="M53.3079 0.0978028C52.9366 -0.0890285 52.4858 -0.00209929 52.2103 0.309367C52.145 0.383202 45.5744 7.70963 36.9176 8.40204C36.5005 8.43538 36.1592 8.74684 36.0881 9.15918C36.0663 9.28454 33.7612 21.6504 17.0437 35.3204C16.6508 34.4863 16.3047 33.6255 16.0086 32.7403C15.4748 31.1448 13.8371 30.2392 12.1989 30.6337L12.1528 30.6449C11.2769 30.856 10.5243 31.4292 10.0878 32.2176C9.65039 33.0079 9.56407 33.9526 9.85116 34.8096C11.8173 40.6808 15.4902 45.727 20.4728 49.4025C21.0323 49.8152 21.709 50.0337 22.3949 50.0337C22.6008 50.0337 22.8075 50.014 23.0122 49.9739C23.8965 49.8009 24.6733 49.2609 25.1436 48.492L25.1677 48.4524C26.0471 47.0146 25.689 45.1774 24.3347 44.179C23.5729 43.6174 22.8507 43.0143 22.1694 42.3741C35.9125 38.7521 44.2173 26.0139 48.8091 15.7568C49.0157 15.2952 48.8089 14.7535 48.3474 14.5466C47.8861 14.34 47.344 14.5466 47.1372 15.0083C42.5985 25.1467 34.3395 37.7924 20.6877 40.8504C19.63 39.6579 18.6999 38.3615 17.9073 36.9775C26.9338 29.6593 31.8591 22.6957 34.4111 18.1017C36.5502 14.2509 37.4245 11.4065 37.739 10.1614C43.6551 9.47465 48.496 6.12005 51.2119 3.79636C50.6257 5.86302 49.693 8.8151 48.3479 12.1576C48.1591 12.6269 48.3863 13.1602 48.8556 13.3491C49.3247 13.5378 49.8582 13.3108 50.0472 12.8414C52.6854 6.28554 53.7489 1.31299 53.7929 1.10458C53.8785 0.698064 53.6794 0.284513 53.3079 0.0978028ZM23.2477 45.6535C23.8309 46.0835 23.9848 46.8761 23.6048 47.4971L23.5807 47.5366C23.3748 47.8733 23.0479 48.1004 22.6604 48.1763C22.2714 48.2525 21.8801 48.1644 21.5602 47.9283C16.8823 44.4776 13.4339 39.74 11.5881 34.2279C11.4618 33.851 11.4982 33.452 11.6904 33.1047C11.8816 32.7593 12.1983 32.5181 12.5829 32.4254L12.6274 32.4147C12.7347 32.3887 12.8426 32.3765 12.9493 32.3765C13.5342 32.3765 14.0804 32.7495 14.2717 33.3214C15.932 38.2839 19.0358 42.5483 23.2477 45.6535Z" fill="#6D5729"/>
<path d="M14.8949 45.7847C14.596 45.3766 14.0227 45.2879 13.6146 45.5866L7.39398 50.1414L5.12569 47.025L11.3504 42.4671C11.7585 42.1683 11.8471 41.5952 11.5484 41.1871C11.2495 40.779 10.6763 40.6905 10.2683 40.9892L3.95839 45.6094C3.11759 44.9843 1.93343 44.9456 1.04292 45.5939L1.01237 45.6161C0.48134 46.0026 0.132653 46.5728 0.030447 47.2216C-0.0716374 47.8703 0.0848839 48.5202 0.471398 49.0511L4.03853 53.9518C4.42504 54.4828 4.99524 54.8316 5.64399 54.9338C5.7736 54.9541 5.90309 54.9643 6.03172 54.9643C6.54736 54.9643 7.04856 54.8022 7.47363 54.4928L7.50418 54.4706C8.03522 54.0841 8.3839 53.5139 8.48611 52.8652C8.5494 52.4631 8.5129 52.0609 8.38439 51.6866L14.6969 47.0645C15.1051 46.7659 15.1937 46.1928 14.8949 45.7847ZM6.67648 52.5803C6.65041 52.7457 6.56142 52.891 6.42587 52.9897L6.39532 53.0119C6.26002 53.1104 6.09452 53.1504 5.92867 53.1244C5.76317 53.0983 5.61793 53.0093 5.51924 52.8739L1.95223 47.9731C1.85366 47.8377 1.81377 47.672 1.83972 47.5066C1.86578 47.3411 1.95477 47.1957 2.09032 47.097L2.12087 47.0749C2.23205 46.9939 2.36105 46.9551 2.48908 46.9551C2.68294 46.9551 2.87438 47.0444 2.99683 47.2128L3.10728 47.3645L6.45352 51.9618L6.45364 51.9619L6.56409 52.1136C6.66253 52.249 6.70254 52.4148 6.67648 52.5803Z" fill="#6D5729"/>
</svg>
