<svg width="62" height="62" viewBox="0 0 62 62" fill="none" xmlns="http://www.w3.org/2000/svg">
<path d="M59.8513 50.3061C58.463 49.4274 55.8489 49.4635 53.6968 49.69L48.5118 44.5028C49.0419 44.0631 49.4478 43.4746 49.6196 42.6796C49.6196 42.6796 50.7319 40.1131 47.9571 36.8376C47.9571 36.8376 47.2165 33.6618 48.1245 30.291C48.9355 27.3075 49.1755 22.6492 47.6986 18.3001L53.6968 12.3041C55.8511 12.5314 58.4674 12.5712 59.8561 11.6866C60.2092 11.5054 60.5447 11.2695 60.8505 10.9675C61.8951 9.92175 62.2277 8.43261 61.8449 7.10045C61.6641 6.48887 61.3352 5.90668 60.8505 5.41972C59.9901 4.5589 58.8368 4.1828 57.7089 4.28919C57.8131 3.16462 57.4325 2.00693 56.5762 1.14871C56.087 0.661382 55.507 0.332155 54.891 0.154336C53.5636 -0.228459 52.0708 0.100023 51.0266 1.14871C50.7249 1.4478 50.4916 1.78187 50.3041 2.1442C49.4251 3.53179 49.4612 6.14588 49.6881 8.30241L44.8382 13.1456C43.932 12.0582 42.8513 11.066 41.5378 10.2168C39.0345 8.60596 36.169 7.22879 30.026 7.12686C26.1144 7.06437 20.4662 7.80838 16.2346 12.2323L12.3081 8.30203C12.5331 6.14551 12.5707 3.52918 11.6838 2.1416C11.506 1.78373 11.2694 1.44743 10.9644 1.15057C9.92127 0.102999 8.42766 -0.226599 7.09997 0.156196C6.48392 0.334015 5.90396 0.663614 5.41477 1.15057C4.55841 2.00916 4.18269 3.16424 4.28648 4.28473C3.16636 4.1828 2.00682 4.56113 1.14599 5.41935C0.6635 5.90854 0.327205 6.48887 0.15385 7.10603C-0.228945 8.43447 0.102885 9.92138 1.14599 10.9727C1.44732 11.2692 1.78138 11.5084 2.14595 11.6884C3.53353 12.573 6.14986 12.5355 8.29708 12.3056L13.0245 17.033C12.609 17.9255 12.2192 18.87 11.9 19.9235C11.9 19.9235 10.1873 25.7317 12.8062 33.7856C12.8062 33.7856 13.0554 36.1393 11.4662 37.8107C10.1873 39.1563 8.94512 43.4377 12.9089 45.082L8.30155 49.6897C6.14949 49.4609 3.53353 49.4222 2.14818 50.3106C1.79366 50.4873 1.45513 50.7246 1.15269 51.0263C0.109581 52.0724 -0.224481 53.5678 0.158314 54.8933C0.338366 55.5067 0.667964 56.0915 1.15269 56.5807C2.01128 57.4371 3.16636 57.8128 4.29131 57.7087C4.18715 58.8325 4.56771 59.9898 5.42407 60.8503C5.91326 61.3328 6.49322 61.6638 7.11261 61.8402C8.43659 62.2252 9.92834 61.89 10.977 60.8503C11.2761 60.5512 11.5127 60.2115 11.6928 59.851C12.5796 58.4627 12.5376 55.8486 12.3122 53.6992L19.4569 46.5522C19.9461 47.4379 20.5078 49.2094 20.8069 52.7885C20.8069 52.7885 21.0019 55.3434 23.2216 54.9402C23.2216 54.9402 24.3611 54.8725 24.5627 50.0382C24.5627 50.0382 25.8402 48.8289 25.771 51.7149C25.771 51.7149 25.4325 55.0737 27.5823 54.8725C27.5823 54.8725 28.7887 55.6105 29.2597 51.9184C29.2597 51.9184 29.2597 48.6953 30.4036 49.9025C30.4036 49.9025 30.7377 54.6031 32.0821 55.0737C32.0821 55.0737 34.0277 55.6786 34.3655 53.1259C34.3655 53.1259 34.361 49.0327 35.4369 49.7711C35.4369 49.7711 35.8401 50.0408 35.9037 52.521C35.9037 52.521 35.8401 55.1422 37.5164 55.0086C37.5164 55.0086 39.2603 55.0086 39.7317 50.9835C39.7317 50.9835 39.4374 46.4685 41.7026 45.7144L49.6899 53.704C49.4612 55.8561 49.4269 58.4746 50.3127 59.8611C50.4875 60.219 50.7297 60.5586 51.031 60.8555C52.0775 61.9042 53.5703 62.2326 54.8954 61.8498C55.5092 61.6731 56.094 61.3428 56.5784 60.8555C57.4392 59.9969 57.8153 58.8418 57.7112 57.7135C58.8324 57.8177 59.9901 57.4375 60.8528 56.5811C61.3379 56.0919 61.6663 55.512 61.8475 54.9C62.2277 53.5682 61.8973 52.0798 60.8528 51.0311C60.5444 50.7227 60.2136 50.4873 59.8513 50.3061ZM20.448 40.4341C19.6846 40.2824 18.9878 39.9967 18.3673 39.6299C16.3626 38.4499 15.203 36.3342 15.6301 34.2093C16.1985 31.4319 19.2691 29.714 22.4981 30.3676C23.8459 30.644 24.982 31.301 25.8339 32.1574C27.031 33.3623 27.6381 34.9705 27.3141 36.5902C26.7475 39.3743 23.6759 41.0956 20.448 40.4341ZM32.0222 44.1356C31.7852 44.3034 31.5237 44.4031 31.2473 44.4031C30.7488 44.4031 30.3061 44.0995 30.0119 43.6237C29.7161 44.0992 29.2757 44.4031 28.7772 44.4031C28.4986 44.4031 28.2326 44.3034 28.0023 44.1356C27.5064 43.7666 27.1723 43.0642 27.1723 42.251C27.1723 42.02 27.204 41.8005 27.2527 41.59C27.5291 39.9271 30.0119 37.8342 30.0119 37.8342C30.0119 37.8342 32.4921 39.9271 32.7685 41.59C32.8209 41.7983 32.8477 42.0222 32.8477 42.251C32.8522 43.0642 32.5099 43.7662 32.0222 44.1356ZM42.7148 38.708C41.8677 39.5372 40.7465 40.1693 39.4326 40.4345C38.3478 40.6588 37.2898 40.5885 36.3293 40.3255C34.4332 39.7954 32.9426 38.4409 32.5646 36.595L32.5624 36.5563C32.1569 34.4768 33.2736 32.3973 35.2196 31.2128C35.8561 30.8256 36.5901 30.5332 37.3851 30.3721C40.613 29.714 43.6824 31.4323 44.2486 34.2116C44.5838 35.8629 43.9495 37.4986 42.7148 38.708Z" fill="#6D5729"/>
</svg>
