<svg width="55" height="59" viewBox="0 0 55 59" fill="none" xmlns="http://www.w3.org/2000/svg">
<path d="M3.55351 15.9651C3.19948 15.0159 2.14325 14.5338 1.19379 14.8875C0.244563 15.2415 -0.237875 16.298 0.116157 17.2472L15.2442 57.8063C15.5194 58.5443 16.2192 59.0001 16.9631 59.0001C17.176 59.0001 17.3927 58.9626 17.6039 58.8839C18.5531 58.5299 19.0356 57.4734 18.6815 56.5242L3.55351 15.9651Z" fill="#6D5729"/>
<path d="M27.3855 12.7341H27.3606C27.3648 12.7341 27.3689 12.7344 27.373 12.7345C27.3772 12.7345 27.3812 12.7341 27.3855 12.7341Z" fill="#6D5729"/>
<path d="M25.5657 19.205C26.2185 19.0315 26.6071 18.3616 26.4336 17.7088C26.2601 17.0559 25.5902 16.6674 24.9373 16.8409C24.2845 17.0144 23.8959 17.6843 24.0694 18.3371C24.2429 18.99 24.9128 19.3785 25.5657 19.205Z" fill="#6D5729"/>
<path d="M27.4283 20.168L28.2938 19.9382C28.5503 19.8701 28.592 19.5088 28.3624 19.3755L27.8102 19.0407C27.6679 18.958 27.4868 19.0114 27.4042 19.1537L27.089 19.711C26.9557 19.9405 27.1717 20.2361 27.4283 20.168Z" fill="#6D5729"/>
<path d="M29.3636 18.1953C30.0165 18.0218 30.4051 17.3519 30.2315 16.699C30.058 16.0462 29.3881 15.6576 28.7353 15.8311C28.0825 16.0046 27.6939 16.6745 27.8674 17.3273C28.0409 17.9802 28.7108 18.3688 29.3636 18.1953Z" fill="#6D5729"/>
<path d="M53.248 0.248453C51.9471 0.965201 49.3191 0.699707 49.3191 0.699707L43.7267 2.91183C43.7267 2.91183 37.0018 6.52211 34.5242 7.22993C32.0466 7.93775 28.861 9.70754 27.5869 7.65464C26.3127 5.60174 24.4721 3.47828 21.9237 3.83219C19.3753 4.1861 10.3143 7.44247 5.78387 11.973L4.73718 13.0886L14.7033 38.448C14.7033 38.448 21.8176 34.413 25.4278 36.5367C29.0381 38.6604 29.8876 39.8284 35.6214 37.1739C41.3553 34.5193 47.1954 31.2276 50.381 31.7584C53.5665 32.2893 52.8232 31.8646 52.8232 31.8646C52.8232 31.8646 52.3985 30.5904 47.9388 29.6347C43.4791 28.679 48.7882 26.5555 48.7882 26.5555C48.7882 26.5555 51.2305 26.71 51.4428 24.9339C51.6551 23.1577 51.3367 23.37 51.3367 23.37C51.3367 23.37 51.5491 22.202 49.9562 22.3082C48.3634 22.4143 46.6115 20.7685 46.6115 20.7685L48.098 18.8572L48.2042 16.415L48.735 16.0433C48.735 16.0433 48.151 15.1408 48.5758 14.716C49.0007 14.2911 49.3722 13.601 47.0893 13.601C44.8063 13.601 44.9655 12.0614 45.0718 11.6367C45.1781 11.212 45.3904 10.6279 44.9126 10.3625C44.4348 10.0972 44.4348 9.19453 44.9657 8.71674C45.4965 8.23895 46.93 6.53996 47.5672 7.65489C48.2043 8.76981 50.2217 7.28263 50.2217 7.28263C50.2217 7.28263 50.965 6.59303 49.8501 6.06217C48.7352 5.5313 50.0093 3.83231 51.6552 3.03595C53.3011 2.2396 53.301 2.2396 53.301 2.2396L52.9825 1.54939C52.9825 1.54939 54.0708 1.09813 54.0974 0.832638C54.1239 0.567021 54.5486 -0.468294 53.248 0.248453ZM25.8979 12.6918C28.3971 12.0351 30.9746 13.5398 31.6379 16.0387L31.9506 17.2163C32.363 18.7698 31.6329 20.3626 30.3345 21.1184L30.4048 21.3833C30.5637 21.9815 30.1801 22.5508 29.5817 22.7096L27.6588 23.2202C27.0606 23.3791 26.4706 23.0682 26.3118 22.47L26.2413 22.2046C24.739 22.1917 23.315 21.1713 22.9028 19.6185L22.5901 18.4408C21.9267 15.9419 23.4022 13.3611 25.8979 12.6918ZM37.9512 28.0552C37.4942 28.4005 36.8438 28.31 36.4986 27.853C36.3335 27.6345 36.2683 27.3719 36.2949 27.1195L29.7236 26.1619L24.8594 30.6686C25.0269 30.8594 25.1252 31.1115 25.1165 31.3851C25.0983 31.9575 24.6195 32.4068 24.0471 32.3887C23.4746 32.3706 23.0253 31.8917 23.0434 31.3193C22.471 31.3011 22.0217 30.8223 22.0398 30.2499C22.058 29.6774 22.5368 29.2281 23.1092 29.2462C23.3829 29.2549 23.6282 29.369 23.808 29.5482L27.7701 25.8772L22.4349 25.0998C22.3915 25.3499 22.2571 25.5847 22.0385 25.7498C21.5815 26.0951 20.9312 26.0045 20.586 25.5477C20.2407 25.0907 20.3312 24.4403 20.7882 24.0951C20.443 23.6381 20.5335 22.9877 20.9905 22.6425C21.4475 22.2973 22.0979 22.3878 22.4431 22.8448C22.6082 23.0632 22.6734 23.3259 22.6468 23.5783L29.2181 24.5358L34.0823 20.0291C33.9148 19.8384 33.8165 19.5862 33.8252 19.3126C33.8434 18.7402 34.3222 18.2909 34.8946 18.309C35.4671 18.3272 35.9164 18.806 35.8983 19.3784C36.4707 19.3967 36.92 19.8754 36.9019 20.4479C36.8837 21.0203 36.4049 21.4696 35.8325 21.4515C35.5588 21.4428 35.3135 21.3287 35.1337 21.1496L31.1716 24.8205L36.5068 25.5979C36.5502 25.3478 36.6846 25.113 36.9031 24.9479C37.3601 24.6026 38.0105 24.6932 38.3557 25.1502C38.7009 25.6072 38.6105 26.2576 38.1535 26.6028C38.4987 27.0595 38.4081 27.7099 37.9512 28.0552Z" fill="#6D5729"/>
</svg>
