<svg width="57" height="37" viewBox="0 0 57 37" fill="none" xmlns="http://www.w3.org/2000/svg">
<path d="M34.1295 27.7966C34.0676 27.8464 34.0162 27.9081 33.9783 27.978C33.9404 28.0478 33.9167 28.1245 33.9086 28.2036C33.9006 28.2827 33.9083 28.3626 33.9313 28.4387C33.9543 28.5148 33.9922 28.5855 34.0428 28.6469C34.5351 29.2504 35.1259 29.7664 35.7902 30.1731C36.2444 30.4472 36.7649 30.5917 37.2954 30.5909C37.6301 30.5906 37.9624 30.5344 38.2786 30.4245L39.2053 30.1038C39.2919 30.0739 39.3705 30.0245 39.435 29.9594C39.4996 29.8944 39.5484 29.8155 39.5778 29.7287C39.6072 29.6419 39.6163 29.5495 39.6045 29.4587C39.5927 29.3678 39.5602 29.2808 39.5096 29.2044L38.192 27.214C38.0446 26.9914 37.8523 26.802 37.6275 26.6579C37.4026 26.5139 37.1501 26.4184 36.8862 26.3775C36.6223 26.3367 36.3528 26.3514 36.0949 26.4208C35.8371 26.4901 35.5965 26.6125 35.3887 26.7802L34.1295 27.7966ZM36.7028 27.5651C36.8015 27.5798 36.896 27.6153 36.9801 27.6691C37.0642 27.7229 37.1359 27.7939 37.1906 27.8774L38.081 29.2216L37.8864 29.2889C37.6453 29.3748 37.3881 29.4064 37.1333 29.3814C36.8786 29.3565 36.6324 29.2756 36.4125 29.1446C36.0369 28.9159 35.6902 28.643 35.3796 28.3317L36.1432 27.7155C36.2206 27.6524 36.3104 27.6064 36.4069 27.5804C36.5033 27.5545 36.6042 27.5493 36.7028 27.5651Z" fill="#B28B3F"/>
<path d="M0.313659 34.6111C0.467233 34.6947 4.16601 36.6334 12.1612 34.6666C14.6472 34.0551 17.6501 33.6555 21.0863 33.4788C21.2265 33.4711 21.3595 33.4146 21.4623 33.3192C21.5652 33.2237 21.6314 33.0953 21.6494 32.9561C21.6675 32.8169 21.6364 32.6758 21.5614 32.5573C21.4863 32.4387 21.3722 32.3501 21.2387 32.3068C21.0478 32.2447 20.5099 31.993 20.3039 31.5804C20.2474 31.4557 20.2172 31.3207 20.2152 31.1838C20.2132 31.0469 20.2395 30.9111 20.2923 30.7848C20.4878 30.2121 21.2897 29.9039 21.9278 29.7451C22.9296 29.5081 23.9742 29.5196 24.9705 29.7788C25.3147 29.8656 25.6252 29.9572 25.8933 30.0523C26.1089 30.1263 26.2958 30.2665 26.4272 30.4528C26.5586 30.6392 26.6279 30.8622 26.6252 31.0902C26.6313 31.3042 26.5695 31.5146 26.4486 31.6913C26.3278 31.868 26.1541 32.0019 25.9525 32.0739C25.8349 32.1167 25.7145 32.1515 25.5922 32.178C25.4476 32.2099 25.3199 32.294 25.2335 32.4142C25.1471 32.5344 25.1082 32.6823 25.1241 32.8295C25.1401 32.9767 25.2098 33.1128 25.32 33.2117C25.4301 33.3106 25.5729 33.3654 25.721 33.3655H25.7224H26.1255C30.4396 33.3655 34.7061 34.8013 36.7901 35.3784C38.0809 35.7359 40.0935 36.4286 43.1947 36.4285C44.3942 36.4418 45.5897 36.288 46.7468 35.9716C46.8518 35.941 46.9464 35.8824 47.0206 35.8022C47.0947 35.7219 47.1457 35.6229 47.1679 35.5159C47.1901 35.4089 47.1827 35.2979 47.1466 35.1947C47.1105 35.0916 47.047 35.0002 46.9629 34.9304C46.9551 34.924 46.1853 34.271 46.1308 33.3287C46.0949 32.7064 46.3781 32.0659 46.9729 31.4242C47.2377 31.254 48.7103 30.4193 50.6518 31.4872C51.8103 32.1419 54.5223 32.6202 56.4961 29.7446C56.554 29.6599 56.5893 29.5617 56.5986 29.4595C56.6079 29.3573 56.5909 29.2543 56.5491 29.1606C56.5074 29.0668 56.4423 28.9852 56.3601 28.9237C56.2779 28.8622 56.1813 28.8228 56.0796 28.8091C55.2717 28.6729 54.4886 28.417 53.7562 28.0498C51.7875 27.0293 49.6082 26.4815 47.391 26.4498C46.3725 26.4375 45.3546 26.5071 44.3473 26.6581C44.5298 26.1172 44.8823 25.6498 45.3524 25.3259C45.8058 25.0313 46.3455 24.8985 46.8839 24.9491C49.0131 25.115 54.0507 25.0966 54.8411 21.3571C54.8607 21.2632 54.8576 21.166 54.832 21.0736C54.8064 20.9812 54.7592 20.8962 54.6941 20.8258C54.629 20.7554 54.5481 20.7015 54.458 20.6687C54.3679 20.6358 54.2713 20.625 54.1762 20.6371C54.1414 20.6416 50.5969 21.0536 46.5167 18.3394C45.8283 17.8757 45.099 17.4757 44.3381 17.1441L42.6996 16.4387C42.696 16.4372 42.6921 16.4367 42.6885 16.4353C42.6849 16.4339 42.6819 16.4315 42.6783 16.4301C42.0309 16.1963 41.3382 16.1155 40.6544 16.1941C40.4969 16.2177 40.3552 16.303 40.2605 16.4312C40.1659 16.5593 40.126 16.7198 40.1497 16.8773C40.1734 17.0349 40.2586 17.1765 40.3868 17.2712C40.5149 17.3659 40.6754 17.4057 40.8329 17.382C41.308 17.3333 41.788 17.3902 42.2385 17.5485L43.8624 18.2476C44.5571 18.5506 45.2227 18.9162 45.8511 19.3398C49.0614 21.4754 51.9465 21.8386 53.3805 21.8655C52.1832 23.9715 48.2545 23.8512 46.9773 23.752C46.1676 23.6805 45.3575 23.8849 44.6785 24.3319C44.2484 24.6328 43.8822 25.0161 43.6013 25.4596C43.3204 25.9032 43.1304 26.398 43.0423 26.9156C42.7262 26.9486 42.4073 26.8869 42.1263 26.7384L41.8851 26.6102C41.7446 26.5371 41.5809 26.5224 41.4296 26.5694C41.2784 26.6164 41.1518 26.7212 41.0774 26.8611C41.0031 27.0009 40.9869 27.1644 41.0325 27.3161C41.0781 27.4678 41.1818 27.5953 41.3209 27.671L41.5621 27.7992C41.8913 27.9741 42.2522 28.0814 42.6235 28.1149C42.9947 28.1483 43.369 28.1072 43.7241 27.9939C44.9276 27.748 46.1543 27.6334 47.3825 27.6522C49.4144 27.6829 51.4112 28.1865 53.2146 29.1232C53.7606 29.3968 54.3317 29.6172 54.9199 29.7814C53.254 31.4667 51.4599 30.5623 51.2364 30.4389C48.4372 28.8994 46.3135 30.4157 46.2245 30.4809C46.1958 30.5021 46.1689 30.5257 46.1443 30.5515C45.2767 31.4647 44.8689 32.4284 44.9315 33.4162C44.9749 33.9939 45.1661 34.5507 45.4868 35.0331C41.792 35.7047 37.3136 34.2847 37.152 34.2337C35.4034 33.6794 31.5543 32.4593 27.5385 32.2096C27.7306 31.8659 27.8295 31.478 27.8255 31.0843C27.8268 30.6093 27.6799 30.1458 27.4055 29.7582C27.131 29.3706 26.7425 29.0781 26.2941 28.9216C25.9901 28.8136 25.6427 28.7104 25.2618 28.615C24.0745 28.3076 22.8299 28.2956 21.637 28.5802C20.2872 28.9157 19.452 29.5268 19.1546 30.3968C19.0493 30.6752 19.0018 30.9722 19.0152 31.2696C19.0286 31.567 19.1025 31.8586 19.2324 32.1265C19.2773 32.2155 19.3284 32.3012 19.3852 32.3831C16.8548 32.5496 14.3424 32.9235 11.8731 33.501C5.76491 35.0038 2.32903 34.1014 1.25627 33.7101C2.93638 20.9581 1.58337 6.57498 1.26078 3.52815C3.52652 3.14443 5.76246 2.60186 7.95208 1.90444C11.229 0.889119 15.2478 1.22594 16.9235 1.43452L15.781 3.81483C15.7263 3.92863 15.7089 4.05678 15.7312 4.18107C15.7534 4.30536 15.8143 4.41946 15.9052 4.50716C15.996 4.59486 16.1122 4.65169 16.2372 4.66958C16.3622 4.68747 16.4897 4.66551 16.6015 4.60681L20.6274 2.496C21.3753 2.10539 22.2064 1.90115 23.0502 1.90062C27.2883 1.91797 33.8899 3.57969 33.9405 3.59219C42.1901 5.92217 51.3042 3.14552 51.673 3.03082C52.3731 2.81803 53.1045 2.72654 53.8355 2.76029C53.6714 2.9838 53.5393 3.2291 53.443 3.48911C53.3106 3.81569 53.1679 4.12926 53.0187 4.42183C52.6224 5.18265 52.0797 5.85771 51.4218 6.40826C50.7638 6.95881 50.0037 7.37401 49.1849 7.63004C47.0784 8.32883 45.1023 9.37206 43.337 10.7173C43.2365 10.7979 43.1645 10.9086 43.1317 11.0332C43.0988 11.1577 43.1069 11.2895 43.1547 11.4092C43.2025 11.5288 43.2875 11.6299 43.3971 11.6976C43.5067 11.7653 43.6352 11.7959 43.7635 11.785C43.7765 11.7836 45.0912 11.6785 46.1964 12.0655C46.8338 12.2783 47.4959 12.4085 48.1665 12.4528C47.8368 13.1033 47.1165 14.039 45.6038 14.4732C45.0934 14.6174 44.5936 14.7971 44.1083 15.0111C43.9642 15.0771 43.852 15.1973 43.7961 15.3456C43.7402 15.4939 43.7452 15.6583 43.81 15.803C43.8748 15.9476 43.9941 16.0608 44.142 16.1179C44.2898 16.1749 44.4542 16.1713 44.5994 16.1076C45.033 15.9168 45.4795 15.7567 45.9356 15.6284C49.0647 14.7302 49.5842 12.095 49.6047 11.9832C49.6212 11.8942 49.6174 11.8027 49.5936 11.7154C49.5699 11.6281 49.5267 11.5473 49.4673 11.4791C49.408 11.4108 49.334 11.3568 49.2509 11.321C49.1678 11.2853 49.0777 11.2688 48.9873 11.2728C48.1757 11.291 47.3667 11.1758 46.5926 10.9316C46.2449 10.8125 45.8873 10.7248 45.524 10.6696C46.783 9.8771 48.134 9.24111 49.5471 8.77568C50.5176 8.47132 51.4184 7.97826 52.1978 7.32482C52.9772 6.67138 53.6198 5.87042 54.0889 4.96793C54.2561 4.64013 54.4154 4.28925 54.5626 3.92484C54.5671 3.91391 54.5728 3.89777 54.5767 3.88649C54.7185 3.5043 54.9971 3.18834 55.3586 2.99976C55.4589 2.95444 55.5449 2.8824 55.6071 2.79151C55.6693 2.70063 55.7053 2.59439 55.7112 2.48443C55.717 2.37446 55.6926 2.265 55.6404 2.168C55.5883 2.07101 55.5105 1.99021 55.4155 1.93446C55.2734 1.85082 53.9513 1.13987 51.3318 1.87858C51.2411 1.90687 42.1672 4.6672 34.2515 2.43162C33.9754 2.36221 27.4417 0.716979 23.0552 0.698931C22.0152 0.697057 20.9904 0.948518 20.0695 1.43157L17.6487 2.70094L18.3621 1.21501C18.4022 1.1315 18.4225 1.03984 18.4213 0.947192C18.4201 0.854547 18.3975 0.763434 18.3553 0.680983C18.313 0.598533 18.2522 0.526982 18.1777 0.471933C18.1032 0.416884 18.0169 0.379831 17.9257 0.363673C17.6904 0.321679 12.115 -0.644187 7.59825 0.755501C3.28431 2.09307 0.559724 2.41427 0.532653 2.41739C0.453986 2.42639 0.377873 2.45084 0.308688 2.48935C0.239502 2.52786 0.178608 2.57966 0.129506 2.64177C0.0804037 2.70389 0.0440609 2.77509 0.0225663 2.8513C0.00107171 2.92751 -0.00515085 3.00721 0.00425617 3.08583C0.0242121 3.25103 1.96809 19.7736 0.00564439 34.0013C-0.0109783 34.1222 0.00958677 34.2453 0.0646057 34.3542C0.119625 34.4631 0.206491 34.5527 0.313659 34.6111Z" fill="#B28B3F"/>
<path d="M51.8983 14.4832L51.7852 14.5005C51.4047 14.5605 51.0405 14.6978 50.7151 14.9042C50.3898 15.1105 50.1102 15.3813 49.8937 15.6999L49.2317 16.6773C49.1481 16.8005 49.1133 16.9504 49.134 17.0979C49.1547 17.2454 49.2294 17.38 49.3436 17.4755C50.3034 18.2584 51.5107 18.6735 52.749 18.6463C53.4535 18.6481 54.154 18.5387 54.8244 18.3222C54.9611 18.2733 55.0755 18.1766 55.1465 18.0499C55.2174 17.9232 55.2401 17.7752 55.2103 17.6331L54.9988 16.6252C54.8548 15.939 54.4528 15.3342 53.8759 14.9356C53.299 14.537 52.5912 14.3751 51.8983 14.4832ZM50.553 16.8687L50.8881 16.3741C51.0119 16.1918 51.1719 16.0368 51.3581 15.9187C51.5443 15.8007 51.7528 15.7222 51.9705 15.688L52.0838 15.6706C52.4724 15.6102 52.8694 15.7011 53.1929 15.9247C53.5165 16.1483 53.7419 16.4875 53.8228 16.8723L53.9172 17.3226C53.1849 17.4732 51.7777 17.6148 50.553 16.8678V16.8687Z" fill="#B28B3F"/>
<path d="M30.0119 12.262L28.7746 11.9579C28.3393 11.8507 27.8824 11.8698 27.4576 12.0131C27.3066 12.064 27.182 12.1727 27.1112 12.3154C27.0403 12.4581 27.0291 12.6231 27.08 12.7741C27.1308 12.925 27.2395 13.0496 27.3822 13.1204C27.5249 13.1913 27.6899 13.2025 27.8409 13.1516C28.0496 13.0814 28.2741 13.072 28.488 13.1246L29.7296 13.4296C30.0084 13.4984 30.2944 13.5342 30.5816 13.5364C30.9839 13.5487 31.3825 13.4561 31.7381 13.2676C32.0937 13.0791 32.3941 12.8012 32.6096 12.4614C32.8134 12.1484 32.9409 11.792 32.982 11.4209C33.0231 11.0497 32.9765 10.6741 32.8462 10.3242C32.4097 9.1747 31.2799 8.88595 30.5242 8.82695C30.5559 7.50084 30.0329 6.77132 29.5489 6.38209C29.2246 6.12691 28.8433 5.95425 28.4375 5.87897C28.0318 5.80368 27.6138 5.82801 27.2196 5.94988C26.8253 6.07174 26.4666 6.28748 26.1741 6.57858C25.8816 6.86968 25.6641 7.22742 25.5404 7.62109C25.3838 8.17126 25.3313 8.74582 25.3854 9.31526C25.3993 9.51408 25.3615 9.71309 25.2758 9.89302C25.1901 10.0729 25.0594 10.2277 24.8963 10.3422L24.2889 10.77C23.6719 10.3524 22.9959 10.0295 22.2833 9.81208C20.0985 9.12566 17.7376 9.26736 15.6506 10.2102C15.1741 10.4246 14.7171 10.6801 14.2848 10.9737L13.3895 10.3427C13.2264 10.2282 13.0957 10.0735 13.01 9.89354C12.9243 9.71361 12.8865 9.5146 12.9003 9.31578C12.9545 8.74628 12.902 8.17167 12.7454 7.62144C12.6216 7.2278 12.4042 6.87008 12.1117 6.57901C11.8192 6.28793 11.4604 6.0722 11.0662 5.95035C10.6719 5.82849 10.254 5.80415 9.84827 5.87941C9.44255 5.95468 9.06116 6.12729 8.73686 6.38244C8.25288 6.77184 7.73039 7.50136 7.76162 8.82747C7.0059 8.88647 5.87605 9.17453 5.43963 10.3245C5.30925 10.6745 5.26273 11.0501 5.3038 11.4213C5.34488 11.7925 5.4724 12.1489 5.67615 12.4619C6.02234 12.9972 6.85701 13.835 8.56038 13.4291L9.79782 13.1251C9.9574 13.0862 10.1234 13.0815 10.2849 13.1114C10.4465 13.1414 10.5998 13.2052 10.7349 13.2986L11.724 13.983C11.3342 14.8689 11.1061 15.8174 11.0507 16.7836C11.012 17.4206 11.118 18.058 11.3605 18.6482C11.6031 19.2384 11.976 19.7661 12.4514 20.1917C12.8877 20.5825 13.3069 20.9921 13.704 21.4111L12.0464 22.5564C11.7304 22.7744 11.488 23.0831 11.3512 23.4418C11.2144 23.8004 11.1897 24.1922 11.2803 24.5652C11.4264 25.0331 11.3859 25.5394 11.1673 25.9781C11.0708 26.1415 10.9349 26.2781 10.7721 26.3756C10.6092 26.473 10.4246 26.5282 10.2349 26.536C10.1019 26.5559 9.96619 26.5462 9.83738 26.5075C9.70857 26.4689 9.58988 26.4023 9.4898 26.3125C9.2191 26.0312 9.11463 25.4217 9.1948 24.5966C9.20269 24.5103 9.19192 24.4233 9.16322 24.3416C9.13451 24.2598 9.08855 24.1851 9.02845 24.1227C8.96836 24.0603 8.89553 24.0115 8.81491 23.9797C8.7343 23.9479 8.64778 23.9338 8.56125 23.9384C8.5524 23.9384 7.67069 23.9769 7.25006 23.3436C7.12007 23.1469 7.05368 22.915 7.05989 22.6794C7.0661 22.4437 7.1446 22.2157 7.28476 22.0261C7.41125 21.8363 7.59311 21.6901 7.80562 21.6072C8.01814 21.5244 8.251 21.509 8.47257 21.5631C8.61944 21.6002 8.75986 21.6593 8.88904 21.7384C9.20243 21.9244 9.56325 22.015 9.92734 21.9991C10.2914 21.9832 10.643 21.8615 10.9389 21.6489L11.3093 21.3886C11.4376 21.296 11.5243 21.1566 11.5504 21.0006C11.5766 20.8445 11.5401 20.6844 11.449 20.5551C11.3578 20.4258 11.2193 20.3376 11.0636 20.3098C10.9078 20.282 10.7473 20.3168 10.617 20.4066L10.2469 20.6669C10.1415 20.7438 10.0162 20.7888 9.88594 20.7966C9.75569 20.8045 9.62591 20.7748 9.51201 20.7111C9.27934 20.5692 9.02654 20.4633 8.76219 20.397C8.30572 20.281 7.82458 20.3088 7.38448 20.4765C6.94438 20.6442 6.56679 20.9437 6.30328 21.3341C6.02394 21.7216 5.86913 22.185 5.85943 22.6627C5.84973 23.1403 5.98559 23.6096 6.24897 24.0082C6.4471 24.2952 6.7016 24.5388 6.99695 24.7242C7.29231 24.9096 7.62233 25.0329 7.96691 25.0867C7.96326 25.9968 8.18313 26.6876 8.62302 27.1451C8.82045 27.343 9.05664 27.4981 9.31678 27.6005C9.57693 27.7029 9.85542 27.7505 10.1348 27.7403C10.1907 27.7403 10.2474 27.7386 10.3049 27.7352C10.6965 27.7146 11.0768 27.5963 11.4109 27.3909C11.745 27.1856 12.0224 26.8998 12.2177 26.5597C12.5842 25.8547 12.6655 25.0358 12.4448 24.2725C12.4131 24.1366 12.4233 23.9943 12.4741 23.8643C12.5249 23.7343 12.6139 23.6228 12.7294 23.5445L14.4019 22.3884C14.5166 22.6696 14.5775 22.9698 14.5815 23.2734L14.5989 24.6407C14.6046 25.0709 14.7687 25.4839 15.0597 25.8008C15.3507 26.1177 15.7482 26.3163 16.1764 26.3586C16.9412 26.4355 17.9738 26.5032 19.2385 26.5032C20.2674 26.5032 21.45 26.4582 22.7658 26.3371C23.2011 26.2989 23.6061 26.0986 23.9006 25.7758C24.1951 25.4531 24.3576 25.0314 24.3559 24.5945V23.1195C24.3563 22.9916 24.3668 22.864 24.3873 22.7378L25.5548 23.5448C25.6705 23.6232 25.7596 23.7348 25.8105 23.865C25.8613 23.9951 25.8714 24.1377 25.8394 24.2737C25.6187 25.0369 25.7 25.8558 26.0665 26.5608C26.2618 26.9009 26.5392 27.1867 26.8733 27.392C27.2075 27.5973 27.5877 27.7157 27.9794 27.7363C28.0368 27.7396 28.0934 27.7413 28.1494 27.7413C28.4288 27.7515 28.7072 27.7039 28.9674 27.6015C29.2275 27.4991 29.4636 27.344 29.661 27.1461C30.1011 26.6887 30.3204 25.9979 30.3173 25.0877C30.6619 25.034 30.9919 24.9107 31.2873 24.7252C31.5826 24.5398 31.8371 24.2962 32.0353 24.0092C32.2987 23.6107 32.4347 23.1414 32.425 22.6638C32.4154 22.1861 32.2606 21.7227 31.9813 21.3351C31.7178 20.9448 31.3402 20.6453 30.9001 20.4776C30.46 20.3099 29.9789 20.2821 29.5224 20.3981C29.258 20.4644 29.0051 20.5702 28.7724 20.7122C28.6589 20.777 28.5289 20.8073 28.3984 20.7995C28.2679 20.7916 28.1426 20.7459 28.0377 20.6679L26.4809 19.5709C27.0655 18.796 27.3624 17.842 27.3206 16.8723C27.2596 15.4337 26.8684 13.2256 25.2419 11.5704L25.589 11.3261C25.9217 11.0914 26.1882 10.7746 26.3625 10.4066C26.5368 10.0386 26.6131 9.63173 26.584 9.22555C26.5429 8.80559 26.5788 8.38165 26.6899 7.97457C26.7553 7.76677 26.8707 7.57819 27.0259 7.42537C27.1812 7.27255 27.3716 7.16017 27.5804 7.09808C27.7856 7.03127 28.0041 7.01658 28.2163 7.05533C28.4286 7.09408 28.6279 7.18504 28.7962 7.32002C29.2579 7.69137 29.419 8.37196 29.2748 9.34285C29.2615 9.43403 29.2693 9.52703 29.2977 9.61469C29.326 9.70236 29.3741 9.78235 29.4382 9.84851C29.5023 9.91467 29.5808 9.96524 29.6675 9.99632C29.7543 10.0274 29.847 10.0382 29.9385 10.0278C29.9527 10.026 31.3903 9.87489 31.7234 10.7524C31.7872 10.9261 31.8095 11.1123 31.7884 11.2961C31.7673 11.4799 31.7035 11.6563 31.602 11.811C31.2872 12.2941 30.7661 12.4416 30.0119 12.262ZM11.4181 12.309C11.143 12.119 10.8308 11.9894 10.5021 11.9289C10.1733 11.8684 9.83546 11.8783 9.5108 11.9579L8.2777 12.262C7.5192 12.4424 6.99809 12.2948 6.68435 11.8097C6.58279 11.6551 6.51889 11.4787 6.4978 11.2949C6.4767 11.1111 6.49899 10.9249 6.56288 10.7512C6.89588 9.87385 8.33288 10.025 8.34555 10.0262C8.43728 10.0372 8.53032 10.0269 8.61742 9.99611C8.70453 9.96531 8.78335 9.91483 8.84777 9.8486C8.91219 9.78236 8.96046 9.70217 8.98884 9.61424C9.01721 9.52632 9.02493 9.43303 9.01138 9.34164C8.86718 8.37074 9.02873 7.69016 9.49015 7.31863C9.65846 7.18371 9.85769 7.09279 10.0699 7.05408C10.2821 7.01536 10.5006 7.03007 10.7057 7.09686C10.9145 7.15896 11.1049 7.27134 11.2602 7.42416C11.4155 7.57697 11.5309 7.76555 11.5963 7.97336C11.7075 8.38042 11.7433 8.80437 11.7021 9.22433C11.673 9.63048 11.7492 10.0373 11.9235 10.4053C12.0977 10.7733 12.3641 11.0901 12.6968 11.3249L13.3101 11.7572C12.9364 12.1105 12.6022 12.5033 12.3133 12.9287L11.4181 12.309ZM29.3957 21.7377C29.5248 21.6585 29.6653 21.5993 29.8122 21.5623C30.0337 21.5081 30.2666 21.5235 30.4791 21.6064C30.6916 21.6892 30.8735 21.8354 31 22.0253C31.1401 22.2148 31.2186 22.4429 31.2248 22.6785C31.231 22.9141 31.1646 23.146 31.0347 23.3427C30.6139 23.9762 29.7332 23.9381 29.7277 23.9379C29.6407 23.9321 29.5534 23.9452 29.4721 23.9765C29.3907 24.0078 29.3171 24.0564 29.2564 24.119C29.1957 24.1817 29.1494 24.2567 29.1206 24.3391C29.0919 24.4214 29.0814 24.509 29.0899 24.5957C29.1708 25.4209 29.0663 26.0303 28.7949 26.3116C28.6949 26.4014 28.5762 26.4681 28.4474 26.5067C28.3186 26.5453 28.1828 26.555 28.0498 26.5351C27.8602 26.5273 27.6756 26.4722 27.5127 26.3748C27.3499 26.2773 27.2141 26.1406 27.1176 25.9772C26.8988 25.5386 26.8583 25.0323 27.0045 24.5645C27.095 24.1914 27.0702 23.7996 26.9333 23.4409C26.7964 23.0823 26.5538 22.7736 26.2376 22.5557L24.8688 21.6093C25.1257 21.2212 25.403 20.847 25.6995 20.4883L27.3449 21.648C27.6409 21.8608 27.9926 21.9827 28.3568 21.9987C28.721 22.0147 29.082 21.9241 29.3955 21.7381L29.3957 21.7377ZM26.1205 16.9214C26.1533 17.7137 25.8713 18.4869 25.336 19.072C24.7228 19.7384 24.1716 20.4593 23.6894 21.2258C23.3398 21.7953 23.1548 22.4506 23.1551 23.1188V24.5938C23.1556 24.7308 23.1046 24.863 23.0122 24.9642C22.9198 25.0653 22.7928 25.128 22.6563 25.1399C22.2612 25.1764 21.8794 25.2057 21.5111 25.2279V23.5372C21.5111 23.3779 21.4478 23.2251 21.3351 23.1124C21.2224 22.9997 21.0696 22.9365 20.9103 22.9365C20.751 22.9365 20.5982 22.9997 20.4855 23.1124C20.3728 23.2251 20.3095 23.3779 20.3095 23.5372V25.2824C19.698 25.2998 19.1351 25.3022 18.6263 25.293V23.2957C18.6236 23.1381 18.5592 22.9879 18.4468 22.8775C18.3344 22.767 18.1832 22.7051 18.0256 22.7051C17.8681 22.7051 17.7168 22.767 17.6045 22.8775C17.4921 22.9879 17.4276 23.1381 17.425 23.2957V25.2491C16.9707 25.2236 16.5899 25.192 16.297 25.1623C16.1626 25.1493 16.0378 25.0873 15.9463 24.988C15.8547 24.8888 15.803 24.7593 15.8009 24.6244L15.7835 23.2573C15.7739 22.3722 15.439 21.5215 14.8425 20.8675C14.3469 20.325 13.8124 19.7963 13.2538 19.2958C12.9139 18.9925 12.6469 18.6162 12.473 18.1951C12.299 17.774 12.2226 17.319 12.2494 16.8641C12.4264 14.2633 13.7368 12.393 16.1443 11.3049C17.9631 10.4834 20.0206 10.3598 21.9246 10.9579C25.227 11.9935 26.0292 14.7726 26.1203 16.9217L26.1205 16.9214Z" fill="#B28B3F"/>
<path d="M18.4576 15.6127C18.383 15.3279 18.2409 15.0653 18.0434 14.8469C17.8459 14.6286 17.5988 14.461 17.3229 14.3583C17.047 14.2537 16.7503 14.2161 16.4572 14.2485C16.164 14.2809 15.8826 14.3824 15.6363 14.5447C15.1284 14.8739 14.6681 15.2714 14.2684 15.7261C14.051 15.9775 13.9013 16.2802 13.8334 16.6056C13.7656 16.9309 13.7818 17.2682 13.8806 17.5856C13.9741 17.8975 14.1456 18.1805 14.3789 18.4077C14.6122 18.6349 14.8996 18.7989 15.214 18.8841C15.6043 18.9876 16.0066 19.0388 16.4104 19.0363C16.5813 19.0363 16.7556 19.028 16.9335 19.0113C17.3785 18.9686 17.7935 18.7675 18.1028 18.4445C18.4121 18.1216 18.5952 17.6984 18.6188 17.2519C18.6494 16.7005 18.5951 16.1476 18.4576 15.6127ZM17.4192 17.1959C17.4102 17.3535 17.345 17.5027 17.2353 17.6163C17.1257 17.7299 16.9789 17.8004 16.8217 17.815C16.3888 17.8623 15.9509 17.8317 15.5287 17.7246C15.4103 17.6927 15.3021 17.6308 15.2146 17.5448C15.1272 17.4588 15.0635 17.3516 15.0297 17.2337C14.991 17.1105 14.9843 16.9794 15.0102 16.8529C15.0362 16.7264 15.0939 16.6086 15.178 16.5106C15.5059 16.1397 15.883 15.8154 16.2989 15.5468C16.3857 15.4897 16.4849 15.4539 16.5883 15.4424C16.6916 15.4309 16.7962 15.4441 16.8935 15.4807C16.9908 15.5174 17.0781 15.5765 17.1482 15.6533C17.2183 15.7301 17.2692 15.8224 17.2968 15.9227C17.4026 16.3383 17.4439 16.7677 17.4192 17.1959Z" fill="#B28B3F"/>
<path d="M24.0978 15.7261C23.698 15.2715 23.2377 14.874 22.7298 14.5447C22.4835 14.3824 22.2021 14.2809 21.9089 14.2485C21.6157 14.2161 21.319 14.2537 21.0431 14.3583C20.7673 14.461 20.5202 14.6286 20.3227 14.8469C20.1253 15.0652 19.9832 15.3278 19.9086 15.6126C19.7709 16.1475 19.7164 16.7005 19.7469 17.2521C19.7704 17.6986 19.9535 18.1218 20.2627 18.4446C20.572 18.7675 20.9869 18.9686 21.432 19.0113C21.6097 19.028 21.784 19.0363 21.955 19.0363C22.3588 19.0388 22.7612 18.9876 23.1515 18.8841C23.4658 18.7989 23.7532 18.6349 23.9866 18.4077C24.2199 18.1805 24.3915 17.8975 24.4851 17.5856C24.5839 17.2683 24.6002 16.931 24.5325 16.6056C24.4647 16.2802 24.3151 15.9775 24.0978 15.7261ZM23.3363 17.2337C23.3025 17.3516 23.2388 17.4588 23.1513 17.5448C23.0639 17.6308 22.9557 17.6927 22.8372 17.7246C22.4152 17.8319 21.9772 17.8626 21.5443 17.815C21.3871 17.8004 21.2403 17.7299 21.1307 17.6164C21.0211 17.5028 20.9558 17.3536 20.9468 17.196C20.922 16.7679 20.9629 16.3384 21.0683 15.9227C21.0947 15.8224 21.1449 15.73 21.2146 15.6532C21.2843 15.5765 21.3714 15.5176 21.4686 15.4816C21.5446 15.4525 21.6253 15.4376 21.7067 15.4375C21.835 15.4376 21.9604 15.4756 22.0671 15.5468C22.4829 15.8155 22.8599 16.1397 23.1878 16.5106C23.272 16.6086 23.3298 16.7264 23.3558 16.8529C23.3817 16.9794 23.3751 17.1105 23.3363 17.2337Z" fill="#B28B3F"/>
<path d="M19.1829 19.7636C19.0238 19.7638 18.8713 19.8272 18.7588 19.9398C18.6464 20.0524 18.5832 20.205 18.5832 20.3641V20.64C18.5819 20.7198 18.5964 20.799 18.626 20.8731C18.6556 20.9471 18.6996 21.0146 18.7555 21.0714C18.8114 21.1283 18.8781 21.1735 18.9516 21.2043C19.0252 21.2351 19.1041 21.251 19.1839 21.251C19.2636 21.251 19.3426 21.2351 19.4161 21.2043C19.4897 21.1735 19.5564 21.1283 19.6123 21.0714C19.6682 21.0146 19.7122 20.9471 19.7418 20.8731C19.7714 20.799 19.7859 20.7198 19.7846 20.64V20.3641C19.7846 20.2852 19.769 20.207 19.7387 20.1341C19.7085 20.0611 19.6642 19.9949 19.6083 19.9391C19.5524 19.8833 19.4861 19.8391 19.4131 19.809C19.3401 19.7788 19.2619 19.7634 19.1829 19.7636Z" fill="#B28B3F"/>
<path d="M36.916 12.6178C36.9957 12.6192 37.0749 12.6046 37.149 12.5751C37.2231 12.5455 37.2905 12.5014 37.3474 12.4455C37.4042 12.3896 37.4494 12.3229 37.4802 12.2494C37.5111 12.1758 37.5269 12.0969 37.5269 12.0171C37.5269 11.9374 37.5111 11.8584 37.4802 11.7849C37.4494 11.7113 37.4042 11.6447 37.3474 11.5887C37.2905 11.5328 37.2231 11.4888 37.149 11.4592C37.0749 11.4296 36.9957 11.4151 36.916 11.4165H36.5712C36.4914 11.4151 36.4122 11.4296 36.3382 11.4592C36.2641 11.4888 36.1967 11.5328 36.1398 11.5887C36.0829 11.6447 36.0378 11.7113 36.0069 11.7849C35.9761 11.8584 35.9602 11.9374 35.9602 12.0171C35.9602 12.0969 35.9761 12.1758 36.0069 12.2494C36.0378 12.3229 36.0829 12.3896 36.1398 12.4455C36.1967 12.5014 36.2641 12.5455 36.3382 12.5751C36.4122 12.6046 36.4914 12.6192 36.5712 12.6178H36.916Z" fill="#B28B3F"/>
</svg>
